<svg xmlns="http://www.w3.org/2000/svg" xmlns:xlink="http://www.w3.org/1999/xlink" id="Objects" x="0px" y="0px" viewBox="0 0 625 645.1" style="enable-background:new 0 0 625 645.1;" xml:space="preserve"> <style type="text/css"> .st0{fill-rule:evenodd;clip-rule:evenodd;fill:#FFFFFF;} .st1{fill-rule:evenodd;clip-rule:evenodd;} .st2{fill-rule:evenodd;clip-rule:evenodd;fill:#212121;} .st3{fill:#212121;} .st4{fill-rule:evenodd;clip-rule:evenodd;fill:#93989C;} .st5{fill-rule:evenodd;clip-rule:evenodd;fill:#66696B;} .st6{fill-rule:evenodd;clip-rule:evenodd;fill:#D4DFE6;} </style> <rect x="384.9" y="275.7" class="st0" width="33" height="8"></rect> <rect x="578.6" y="275.7" class="st0" width="33" height="8"></rect> <path class="st1" d="M559.8,240.8c1.4,6.5-6.5,373.7-6.5,373.7h-45.7l-3.9-291.1H495L491,614.5h-45.7c0,0-7.9-367.3-6.5-373.7H559.8 z"></path> <path class="st2" d="M567.7,317.5c-12.6,3.7-31.3,8-48.7-4.6c-17.3-12.6-8.5-118.1-9-149.2c-0.6-31.1,5.9-109,13.9-144.2 c9.9,5.5,53.7,24,58.1,25.7c0.4,0.1,0.7,0.4,1.1,0.8c-10.7,28.7-18.4,74.6-19.2,84.2c-5,15.5-5.7,70.1-2.4,92.7 C564.7,245.5,567.7,317.5,567.7,317.5L567.7,317.5z M430.9,317.5c12.6,3.7,31.3,8,48.7-4.6c17.3-12.6,8.4-118.2,9-149.2 c0.6-31-5.1-107.7-13.9-144.2c-9.9,5.5-53.7,24-58,25.7c-0.4,0.1-0.7,0.4-1.1,0.8c10.7,28.7,18.4,74.6,19.2,84.2 c5,15.5,5.7,70.1,2.4,92.7C433.8,245.5,430.9,317.5,430.9,317.5z"></path> <path class="st1" d="M567.7,312.1c-12.6,3.7-31.3,8-48.7-4.6c-17.3-12.6-8.5-118.1-9-149.2c-0.6-31.1,5.9-109,13.9-144.2 c9.9,5.5,53.7,24,58.1,25.7c0.4,0.1,0.7,0.4,1.1,0.8c-10.7,28.7-18.4,74.6-19.2,84.2c-5,15.5-5.7,70.1-2.4,92.7 C564.7,240.1,567.7,312.1,567.7,312.1L567.7,312.1z M430.9,312.1c12.6,3.7,31.3,8,48.7-4.6c17.3-12.6,8.4-118.2,9-149.2 c0.6-31-5.1-107.7-13.9-144.2c-9.9,5.5-53.7,24-58,25.7c-0.4,0.1-0.7,0.4-1.1,0.8c10.7,28.7,18.4,74.6,19.2,84.2 c5,15.5,5.7,70.1,2.4,92.7C433.8,240.1,430.9,312.1,430.9,312.1z"></path> <path class="st2" d="M557.1,61.4c-4.8,14.4-34.7,78-45.6,104.8c0-3.1,0.1-5.8,0-8.2c-0.6-31,5.1-107.7,13.9-144.2L552.5,46l-9.9,6.2 L557.1,61.4z"></path> <path class="st3" d="M582.6,40.2c-3.6,7.4-8.7,21.7-12.9,39.2c-3.5,14.6-6.2,31.3-6.7,48c0.2-0.5,0.4-1.3,0.7-2.6 c0.1,0.2,0.4,1,0.7,1.4c0.6-16.2,3.3-32.4,6.7-46.6c4.1-17.1,9.1-31.2,12.6-38.5C583.4,40.9,583.1,40.6,582.6,40.2z"></path> <path class="st1" d="M583,40.6c11.3,11.1,27.3,117.7,27.6,130.8c0.6,24.6,4.5,87.4,4.5,107.7l-41.6-0.1 c3.1-33.3-2.5-139.1-9.7-154.2C560.4,112.2,566.7,65.2,583,40.6z"></path> <path class="st1" d="M415.6,40.6c16.3,26.2,22.6,72.7,19.2,84.2c-7.3,15.1-15.2,120.9-12.1,154.2l-41.6,0.1 c0-20.3,5.3-81.7,6.9-107.7C388.8,158.4,404.3,51.7,415.6,40.6z"></path> <g> <path class="st4" d="M385.6,266.5c1.3,0,2.4-1.1,2.4-2.4c0-1.3-1.1-2.4-2.4-2.4c-1.3,0-2.4,1.1-2.4,2.4 C383.1,265.4,384.2,266.5,385.6,266.5z"></path> <path class="st4" d="M385.4,274.1c1.3,0,2.4-1.1,2.4-2.4c0-1.3-1.1-2.4-2.4-2.4c-1.3,0-2.4,1.1-2.4,2.4 C383,273,384,274.1,385.4,274.1z"></path> </g> <path class="st2" d="M441.5,61.4c4.8,14.4,34.7,78,45.6,104.8c0-3.1-0.1-5.8,0-8.2c0.6-31-5.1-107.7-13.9-144.2L446.1,46l9.9,6.2 L441.5,61.4z"></path> <path class="st2" d="M443.1,61.8c4.8,14.4,34.7,77.8,45.6,104.6c0-3.1-0.1-5.8,0-8.2c0.6-31-5.1-107.7-13.9-144.2L447.9,46l10.2,6.3 L443.1,61.8z"></path> <rect x="541.1" y="103.3" class="st5" width="18" height="3.9"></rect> <rect x="435.4" y="217.9" class="st5" width="26.7" height="5.6"></rect> <rect x="536.5" y="217.9" class="st5" width="26.7" height="5.6"></rect> <path class="st2" d="M555.5,61.8c-4.8,14.4-34.7,77.8-45.6,104.6c0-3.1,0.1-5.8,0-8.2c-0.6-31,5.1-107.7,13.9-144.2L550.7,46 l-10.2,6.3L555.5,61.8z"></path> <path class="st0" d="M489.8,264.2l18.9,0c-1.8-36.9,1.6-86.3,1.2-105.9c-0.6-31.1,5.9-109,13.9-144.2V6.4l-24.5,9.7l-24.5-9.7v7.8 c8.8,36.4,14.5,113.1,13.9,144.2C488.2,177.9,491.6,227.4,489.8,264.2z"></path> <g> <path class="st5" d="M518.1,187.3c1.9,0,3.5-1.6,3.5-3.5c0-1.9-1.6-3.5-3.5-3.5c-1.9,0-3.5,1.6-3.5,3.5 C514.6,185.7,516.2,187.3,518.1,187.3z"></path> <path class="st5" d="M518.1,209.1c1.9,0,3.5-1.6,3.5-3.5c0-1.9-1.6-3.5-3.5-3.5c-1.9,0-3.5,1.6-3.5,3.5 C514.6,207.5,516.2,209.1,518.1,209.1z"></path> <path class="st5" d="M518.1,230.8c1.9,0,3.5-1.6,3.5-3.5c0-1.9-1.6-3.5-3.5-3.5c-1.9,0-3.5,1.6-3.5,3.5 C514.6,229.2,516.2,230.8,518.1,230.8z"></path> </g> <polygon class="st1" points="494.4,26.3 499.3,16.1 504.1,21.3 504.1,264.2 494.4,264.2 "></polygon> <polygon class="st0" points="496.6,21.3 499.3,16.1 504.1,21.3 504.1,264.2 496.6,264.2 "></polygon> <path class="st1" d="M499.3,16.1L510,38.7l12.2-17.1l-0.3,1.4L508,43.9L499.3,16.1z"></path> <path class="st1" d="M499.3,16.1l-10.7,22.6l-12.2-17.1l0.3,1.4l13.9,20.9L499.3,16.1z"></path> <g> <path class="st1" d="M500.2,44c1,0,1.8-0.8,1.8-1.8c0-1-0.8-1.8-1.8-1.8c-1,0-1.8,0.8-1.8,1.8C498.5,43.2,499.3,44,500.2,44z"></path> <path class="st1" d="M500.2,70.5c1,0,1.8-0.8,1.8-1.8c0-1-0.8-1.8-1.8-1.8c-1,0-1.8,0.8-1.8,1.8C498.5,69.7,499.3,70.5,500.2,70.5z "></path> <path class="st1" d="M500.2,96.9c1,0,1.8-0.8,1.8-1.8c0-1-0.8-1.8-1.8-1.8c-1,0-1.8,0.8-1.8,1.8C498.5,96.1,499.3,96.9,500.2,96.9z "></path> <path class="st1" d="M500.2,123.4c1,0,1.8-0.8,1.8-1.8s-0.8-1.8-1.8-1.8c-1,0-1.8,0.8-1.8,1.8S499.3,123.4,500.2,123.4z"></path> <path class="st1" d="M500.2,149.9c1,0,1.8-0.8,1.8-1.8c0-1-0.8-1.8-1.8-1.8c-1,0-1.8,0.8-1.8,1.8 C498.5,149.1,499.3,149.9,500.2,149.9z"></path> <path class="st1" d="M500.2,176.3c1,0,1.8-0.8,1.8-1.8c0-1-0.8-1.8-1.8-1.8c-1,0-1.8,0.8-1.8,1.8 C498.5,175.5,499.3,176.3,500.2,176.3z"></path> <path class="st1" d="M500.2,202.8c1,0,1.8-0.8,1.8-1.8c0-1-0.8-1.8-1.8-1.8c-1,0-1.8,0.8-1.8,1.8 C498.5,202,499.3,202.8,500.2,202.8z"></path> <path class="st1" d="M500.2,229.3c1,0,1.8-0.8,1.8-1.8c0-1-0.8-1.8-1.8-1.8c-1,0-1.8,0.8-1.8,1.8 C498.5,228.5,499.3,229.3,500.2,229.3z"></path> <path class="st1" d="M500.2,255.7c1,0,1.8-0.8,1.8-1.8c0-1-0.8-1.8-1.8-1.8c-1,0-1.8,0.8-1.8,1.8 C498.5,255,499.3,255.7,500.2,255.7z"></path> </g> <g> <path class="st1" d="M502.9,19.8c3.8-2,14-9.4,16.1-7.5c2.9,2.6,2.9,17.4,0,20c-2.1,1.9-12.3-5.5-16.1-7.5 C501.8,23.4,501.8,21.1,502.9,19.8z"></path> <path class="st1" d="M495.8,19.8c-3.8-2-14-9.4-16.1-7.5c-2.9,2.6-2.9,17.4,0,20c2.1,1.9,12.3-5.5,16.1-7.5 C496.9,23.4,496.9,21.1,495.8,19.8z"></path> </g> <path class="st2" d="M496.5,18.6h5.6c1,0,1.8,0.8,1.8,1.8v3.8c0,1-0.8,1.8-1.8,1.8h-5.6c-1,0-1.8-0.8-1.8-1.8v-3.8 C494.8,19.4,495.6,18.6,496.5,18.6z"></path> <path class="st1" d="M281.7,53.9c-1.7,8.7-2.5,11.8-4.2,17.7c-4.8,16.4-10.7,47.9-8,60.2c2.7,12.3,21.5,44.8,21.7,88.8 c0,14-1.6,33.1-3.8,54.5c-52.1,18.6-93.5,10.8-123.9,0.7c-2-22.5-3.2-42.7-2.5-57c2.2-43.4,19.8-81.3,22.5-93.6 c2.7-12.3-5.5-41.4-9.6-56.2c-1-3.6-1.8-9.7-2.7-16.7c9.3-10.6,18.8-13.9,28.2-11.3c11.1,3,15.9,9.9,25.7,10.9c9.8-1,16-8,27.1-10.9 C261.8,38.4,272.1,42.4,281.7,53.9z"></path> <path class="st2" d="M281.6,54.2c-7.5,30.5-35.3,32.8-49.7,13.7C244.1,92.4,275.5,90.2,281.6,54.2z"></path> <path class="st2" d="M171.9,56.9c2.9,29.7,35.6,30.1,50,10.9C209.6,92.4,173.8,91.2,171.9,56.9z"></path> <path class="st2" d="M287.9,270.5c-16.7,0.5-35.5-15.3-47.5-54.7c-0.2,13.4-6.4,42.7-14.8,59.2c-7.8-15.6-13.7-42.7-15.5-58.2 c-10.9,34.1-28.3,56.1-47.2,53.5c0.3,3.5,0.1,1.9,0.4,5.6c30.4,10.1,71.8,17.9,123.9-0.7C287.6,271.5,287.6,274,287.9,270.5z"></path> <path class="st3" d="M415.9,40.3c3.6,7.4,8.7,21.7,12.9,39.2c3.5,14.6,6.2,31.3,6.7,48c-0.2-0.5-0.4-1.3-0.7-2.6 c-0.1,0.2-0.4,1-0.7,1.4c-0.6-16.2-3.3-32.4-6.7-46.6c-4.1-17.1-9.1-31.2-12.6-38.5C415.2,41,415.5,40.6,415.9,40.3z"></path> <rect x="489.6" y="264.3" class="st6" width="19.1" height="1.4"></rect> <path class="st1" d="M287.3,270.9c-15.8,4.3-35-14.1-46.2-48.1c-1.9,12.3-6,43.9-15.7,58.5c-10.5-14.9-13.9-46.2-15.7-58.5 c-11.2,34-30.5,53-46.3,48.7c2.8,60.5-51.4,265.3-140.5,310.7c-33.3,24.7,42.9,32.9,103.3,18.9c-11.4,41.1,204.8,50.1,198.5-0.7 c60.3,14.1,136.6,5.9,103.3-18.9C338.6,536.2,284.5,331.4,287.3,270.9z"></path> <path class="st2" d="M178.8,269c9.3,45.6-17,247.6-52.7,332.1c-4.4,1-13.8,2.8-18.5,3.5C146.9,516.8,187,309.1,178.8,269z"></path> <path class="st2" d="M271.8,286c-9.3,43.4,17,235.7,52.7,316.1c4.4,0.9,13.8,2.7,18.5,3.4C303.7,521.9,263.6,324.2,271.8,286z"></path> </svg>